ffmpeg version 4.4.2-1ubuntu0.1 Copyright (c) 2000-2021 the FFmpeg developers
  built with gcc 11 (Ubuntu 11.4.0-1ubuntu1~22.04)
  configuration: --prefix=/usr --enable-nvv4l2dec --enable-libv4l2 --enable-shared --extra-libs='-L/usr/lib/aarch64-linux-gnu/tegra -lv4l2 -lnvbufsurface -lnvbufsurftransform' --extra-cflags=-I/usr/src/jetson_multimedia_api/include/ --extra-version=1ubuntu0.1 --toolchain=hardened --libdir=/usr/lib/aarch64-linux-gnu --incdir=/usr/include/aarch64-linux-gnu --arch=arm64 --enable-gpl --disable-stripping --enable-gnutls --enable-ladspa --enable-libaom --enable-libass --enable-libbluray --enable-libbs2b --enable-libcaca --enable-libcdio --enable-libcodec2 --enable-libdav1d --enable-libflite --enable-libfontconfig --enable-libfreetype --enable-libfribidi --enable-libgme --enable-libgsm --enable-libjack --enable-libmp3lame --enable-libmysofa --enable-libopenjpeg --enable-libopenmpt --enable-libopus --enable-libpulse --enable-librabbitmq --enable-librubberband --enable-libshine --enable-libsnappy --enable-libsoxr --enable-libspeex --enable-libsrt --enable-libssh --enable-libtheora --enable-libtwolame --enable-libvidstab --enable-libvorbis --enable-libvpx --enable-libwebp --enable-libx265 --enable-libxml2 --enable-libxvid --enable-libzimg --enable-libzmq --enable-libzvbi --enable-lv2 --enable-omx --enable-openal --enable-opencl --enable-opengl --enable-sdl2 --enable-pocketsphinx --enable-librsvg --enable-libdc1394 --enable-libdrm --enable-libiec61883 --enable-chromaprint --enable-frei0r --enable-libx264 --enable-shared
  libavutil      56. 70.100 / 56. 70.100
  libavcodec     58.134.100 / 58.134.100
  libavformat    58. 76.100 / 58. 76.100
  libavdevice    58. 13.100 / 58. 13.100
  libavfilter     7.110.100 /  7.110.100
  libswscale      5.  9.100 /  5.  9.100
  libswresample   3.  9.100 /  3.  9.100
  libpostproc    55.  9.100 / 55.  9.100
Input #0, rawvideo, from 'pipe:':
  Duration: N/A, start: 0.000000, bitrate: 2985984 kb/s
  Stream #0:0: Video: rawvideo, 1 reference frame (BGR[24] / 0x18524742), bgr24, 3840x2160, 2985984 kb/s, 15 tbr, 15 tbn, 15 tbc
Input #1, lavfi, from 'anullsrc=channel_layout=stereo:sample_rate=44100':
  Duration: N/A, start: 0.000000, bitrate: 705 kb/s
  Stream #1:0: Audio: pcm_u8, 44100 Hz, stereo, u8, 705 kb/s
Output #0, tee, to '[f=flv]rtmp://a.rtmp.youtube.com/live2/xcuz-3x1d-9y7v-ghec-2xmh|[f=mp4]video/game_20250726_160127.mp4':
Output file #0 does not contain any stream
[AVIOContext @ 0xaaab0a2d7090] Statistics: 24883200 bytes read, 0 seeks
FFmpeg closed the pipe unexpectedly. Aborting stream.

ffmpeg exited with code 1

Retrying with direct camera input...
Running: /usr/bin/ffmpeg -loglevel verbose -y -f v4l2 -framerate 15 -video_size 3840x2160 -i /dev/video0 -f lavfi -i anullsrc=channel_layout=stereo:sample_rate=44100 -c:v libx264 -preset veryfast -pix_fmt yuv420p -b:v 4500k -maxrate 4500k -bufsize 9000k -g 120 -c:a aac -b:a 128k -f tee [f=flv]rtmp://a.rtmp.youtube.com/live2/xcuz-3x1d-9y7v-ghec-2xmh|[f=mp4]video/game_20250726_160127.mp4

Testing camera by recording locally...
Running: /usr/bin/ffmpeg -loglevel verbose -y -f v4l2 -framerate 15 -video_size 3840x2160 -i /dev/video0 -f lavfi -i anullsrc=channel_layout=stereo:sample_rate=44100 -c:v libx264 -preset veryfast -pix_fmt yuv420p -b:v 4500k -maxrate 4500k -bufsize 9000k -g 120 -c:a aac -b:a 128k output.mp4
